<?xml version="1.0" encoding="UTF-8"?>
<!DOCTYPE svg PUBLIC "-//W3C//DTD SVG 1.1//EN"
    "http://www.w3.org/Graphics/SVG/1.1/DTD/svg11.dtd"><svg font-size="1" viewBox="0.0 0.0 1500.0 1500.0" stroke="rgb(0,0,0)" xmlns="http://www.w3.org/2000/svg" width="1500.0000" stroke-opacity="1" height="1500.0000" version="1.1" xmlns:xlink="http://www.w3.org/1999/xlink"><defs></defs><g stroke-linejoin="miter" fill-opacity="1.0" fill="rgb(0,0,255)" stroke="rgb(0,0,0)" stroke-linecap="butt" stroke-miterlimit="10.0" stroke-opacity="1.0" stroke-width="5.583629154612598"><path d="M 1250.0000,966.5064 l -250.0000,433.0127 h 500.0000 Z"/></g><g stroke-linejoin="miter" fill-opacity="1.0" fill="rgb(255,255,255)" stroke="rgb(0,0,0)" stroke-linecap="butt" stroke-miterlimit="10.0" stroke-opacity="1.0" stroke-width="5.583629154612598"><path d="M 1108.2532,1399.5191 c 0.0000,-59.7866 -48.4666,-108.2532 -108.2532 -108.2532c -59.7866,-0.0000 -108.2532,48.4666 -108.2532 108.2532c -0.0000,59.7866 48.4666,108.2532 108.2532 108.2532c 59.7866,0.0000 108.2532,-48.4666 108.2532 -108.2532Z"/></g><g stroke-linejoin="miter" fill-opacity="1.0" font-size="144.33756729740642px" fill="rgb(0,0,0)" stroke="rgb(0,0,0)" stroke-linecap="butt" stroke-miterlimit="10.0" stroke-opacity="1.0" stroke-width="5.583629154612598"><text transform="matrix(1.0000,0.0000,0.0000,1.0000,1000.0000,1399.5191)" stroke="none" dominant-baseline="middle" text-anchor="middle">Gs</text></g><g stroke-linejoin="miter" fill-opacity="1.0" fill="rgb(255,255,255)" stroke="rgb(0,0,0)" stroke-linecap="butt" stroke-miterlimit="10.0" stroke-opacity="1.0" stroke-width="5.583629154612598"><path d="M 1608.2532,1399.5191 c 0.0000,-59.7866 -48.4666,-108.2532 -108.2532 -108.2532c -59.7866,-0.0000 -108.2532,48.4666 -108.2532 108.2532c -0.0000,59.7866 48.4666,108.2532 108.2532 108.2532c 59.7866,0.0000 108.2532,-48.4666 108.2532 -108.2532Z"/></g><g stroke-linejoin="miter" fill-opacity="1.0" font-size="144.33756729740642px" fill="rgb(0,0,0)" stroke="rgb(0,0,0)" stroke-linecap="butt" stroke-miterlimit="10.0" stroke-opacity="1.0" stroke-width="5.583629154612598"><text transform="matrix(1.0000,0.0000,0.0000,1.0000,1500.0000,1399.5191)" stroke="none" dominant-baseline="middle" text-anchor="middle">Ds</text></g><g stroke-linejoin="miter" fill-opacity="1.0" fill="rgb(255,255,255)" stroke="rgb(0,0,0)" stroke-linecap="butt" stroke-miterlimit="10.0" stroke-opacity="1.0" stroke-width="5.583629154612598"><path d="M 1358.2532,966.5064 c 0.0000,-59.7866 -48.4666,-108.2532 -108.2532 -108.2532c -59.7866,-0.0000 -108.2532,48.4666 -108.2532 108.2532c -0.0000,59.7866 48.4666,108.2532 108.2532 108.2532c 59.7866,0.0000 108.2532,-48.4666 108.2532 -108.2532Z"/></g><g stroke-linejoin="miter" fill-opacity="1.0" font-size="144.33756729740642px" fill="rgb(0,0,0)" stroke="rgb(0,0,0)" stroke-linecap="butt" stroke-miterlimit="10.0" stroke-opacity="1.0" stroke-width="5.583629154612598"><text transform="matrix(1.0000,0.0000,0.0000,1.0000,1250.0000,966.5064)" stroke="none" dominant-baseline="middle" text-anchor="middle">B</text></g><g stroke-linejoin="miter" fill-opacity="1.0" fill="rgb(255,0,0)" stroke="rgb(0,0,0)" stroke-linecap="butt" stroke-miterlimit="10.0" stroke-opacity="1.0" stroke-width="5.583629154612598"><path d="M 1250.0000,966.5064 l -250.0000,-433.0127 h 500.0000 Z"/></g><g stroke-linejoin="miter" fill-opacity="1.0" fill="rgb(255,255,255)" stroke="rgb(0,0,0)" stroke-linecap="butt" stroke-miterlimit="10.0" stroke-opacity="1.0" stroke-width="5.583629154612598"><path d="M 1108.2532,533.4936 c 0.0000,-59.7866 -48.4666,-108.2532 -108.2532 -108.2532c -59.7866,-0.0000 -108.2532,48.4666 -108.2532 108.2532c -0.0000,59.7866 48.4666,108.2532 108.2532 108.2532c 59.7866,0.0000 108.2532,-48.4666 108.2532 -108.2532Z"/></g><g stroke-linejoin="miter" fill-opacity="1.0" font-size="144.33756729740642px" fill="rgb(0,0,0)" stroke="rgb(0,0,0)" stroke-linecap="butt" stroke-miterlimit="10.0" stroke-opacity="1.0" stroke-width="5.583629154612598"><text transform="matrix(1.0000,0.0000,0.0000,1.0000,1000.0000,533.4936)" stroke="none" dominant-baseline="middle" text-anchor="middle">G</text></g><g stroke-linejoin="miter" fill-opacity="1.0" fill="rgb(255,255,255)" stroke="rgb(0,0,0)" stroke-linecap="butt" stroke-miterlimit="10.0" stroke-opacity="1.0" stroke-width="5.583629154612598"><path d="M 1608.2532,533.4936 c 0.0000,-59.7866 -48.4666,-108.2532 -108.2532 -108.2532c -59.7866,-0.0000 -108.2532,48.4666 -108.2532 108.2532c -0.0000,59.7866 48.4666,108.2532 108.2532 108.2532c 59.7866,0.0000 108.2532,-48.4666 108.2532 -108.2532Z"/></g><g stroke-linejoin="miter" fill-opacity="1.0" font-size="144.33756729740642px" fill="rgb(0,0,0)" stroke="rgb(0,0,0)" stroke-linecap="butt" stroke-miterlimit="10.0" stroke-opacity="1.0" stroke-width="5.583629154612598"><text transform="matrix(1.0000,0.0000,0.0000,1.0000,1500.0000,533.4936)" stroke="none" dominant-baseline="middle" text-anchor="middle">D</text></g><g stroke-linejoin="miter" fill-opacity="1.0" fill="rgb(255,255,255)" stroke="rgb(0,0,0)" stroke-linecap="butt" stroke-miterlimit="10.0" stroke-opacity="1.0" stroke-width="5.583629154612598"><path d="M 1358.2532,966.5064 c 0.0000,-59.7866 -48.4666,-108.2532 -108.2532 -108.2532c -59.7866,-0.0000 -108.2532,48.4666 -108.2532 108.2532c -0.0000,59.7866 48.4666,108.2532 108.2532 108.2532c 59.7866,0.0000 108.2532,-48.4666 108.2532 -108.2532Z"/></g><g stroke-linejoin="miter" fill-opacity="1.0" font-size="144.33756729740642px" fill="rgb(0,0,0)" stroke="rgb(0,0,0)" stroke-linecap="butt" stroke-miterlimit="10.0" stroke-opacity="1.0" stroke-width="5.583629154612598"><text transform="matrix(1.0000,0.0000,0.0000,1.0000,1250.0000,966.5064)" stroke="none" dominant-baseline="middle" text-anchor="middle">B</text></g><g stroke-linejoin="miter" fill-opacity="1.0" fill="rgb(0,0,255)" stroke="rgb(0,0,0)" stroke-linecap="butt" stroke-miterlimit="10.0" stroke-opacity="1.0" stroke-width="5.583629154612598"><path d="M 1250.0000,100.4809 l -250.0000,433.0127 h 500.0000 Z"/></g><g stroke-linejoin="miter" fill-opacity="1.0" fill="rgb(255,255,255)" stroke="rgb(0,0,0)" stroke-linecap="butt" stroke-miterlimit="10.0" stroke-opacity="1.0" stroke-width="5.583629154612598"><path d="M 1108.2532,533.4936 c 0.0000,-59.7866 -48.4666,-108.2532 -108.2532 -108.2532c -59.7866,-0.0000 -108.2532,48.4666 -108.2532 108.2532c -0.0000,59.7866 48.4666,108.2532 108.2532 108.2532c 59.7866,0.0000 108.2532,-48.4666 108.2532 -108.2532Z"/></g><g stroke-linejoin="miter" fill-opacity="1.0" font-size="144.33756729740642px" fill="rgb(0,0,0)" stroke="rgb(0,0,0)" stroke-linecap="butt" stroke-miterlimit="10.0" stroke-opacity="1.0" stroke-width="5.583629154612598"><text transform="matrix(1.0000,0.0000,0.0000,1.0000,1000.0000,533.4936)" stroke="none" dominant-baseline="middle" text-anchor="middle">G</text></g><g stroke-linejoin="miter" fill-opacity="1.0" fill="rgb(255,255,255)" stroke="rgb(0,0,0)" stroke-linecap="butt" stroke-miterlimit="10.0" stroke-opacity="1.0" stroke-width="5.583629154612598"><path d="M 1608.2532,533.4936 c 0.0000,-59.7866 -48.4666,-108.2532 -108.2532 -108.2532c -59.7866,-0.0000 -108.2532,48.4666 -108.2532 108.2532c -0.0000,59.7866 48.4666,108.2532 108.2532 108.2532c 59.7866,0.0000 108.2532,-48.4666 108.2532 -108.2532Z"/></g><g stroke-linejoin="miter" fill-opacity="1.0" font-size="144.33756729740642px" fill="rgb(0,0,0)" stroke="rgb(0,0,0)" stroke-linecap="butt" stroke-miterlimit="10.0" stroke-opacity="1.0" stroke-width="5.583629154612598"><text transform="matrix(1.0000,0.0000,0.0000,1.0000,1500.0000,533.4936)" stroke="none" dominant-baseline="middle" text-anchor="middle">D</text></g><g stroke-linejoin="miter" fill-opacity="1.0" fill="rgb(255,255,255)" stroke="rgb(0,0,0)" stroke-linecap="butt" stroke-miterlimit="10.0" stroke-opacity="1.0" stroke-width="5.583629154612598"><path d="M 1358.2532,100.4809 c 0.0000,-59.7866 -48.4666,-108.2532 -108.2532 -108.2532c -59.7866,-0.0000 -108.2532,48.4666 -108.2532 108.2532c -0.0000,59.7866 48.4666,108.2532 108.2532 108.2532c 59.7866,0.0000 108.2532,-48.4666 108.2532 -108.2532Z"/></g><g stroke-linejoin="miter" fill-opacity="1.0" font-size="144.33756729740642px" fill="rgb(0,0,0)" stroke="rgb(0,0,0)" stroke-linecap="butt" stroke-miterlimit="10.0" stroke-opacity="1.0" stroke-width="5.583629154612598"><text transform="matrix(1.0000,0.0000,0.0000,1.0000,1250.0000,100.4809)" stroke="none" dominant-baseline="middle" text-anchor="middle">As</text></g><g stroke-linejoin="miter" fill-opacity="1.0" fill="rgb(255,0,0)" stroke="rgb(0,0,0)" stroke-linecap="butt" stroke-miterlimit="10.0" stroke-opacity="1.0" stroke-width="5.583629154612598"><path d="M 1000.0000,1399.5191 l -250.0000,-433.0127 h 500.0000 Z"/></g><g stroke-linejoin="miter" fill-opacity="1.0" fill="rgb(255,255,255)" stroke="rgb(0,0,0)" stroke-linecap="butt" stroke-miterlimit="10.0" stroke-opacity="1.0" stroke-width="5.583629154612598"><path d="M 858.2532,966.5064 c 0.0000,-59.7866 -48.4666,-108.2532 -108.2532 -108.2532c -59.7866,-0.0000 -108.2532,48.4666 -108.2532 108.2532c -0.0000,59.7866 48.4666,108.2532 108.2532 108.2532c 59.7866,0.0000 108.2532,-48.4666 108.2532 -108.2532Z"/></g><g stroke-linejoin="miter" fill-opacity="1.0" font-size="144.33756729740642px" fill="rgb(0,0,0)" stroke="rgb(0,0,0)" stroke-linecap="butt" stroke-miterlimit="10.0" stroke-opacity="1.0" stroke-width="5.583629154612598"><text transform="matrix(1.0000,0.0000,0.0000,1.0000,750.0000,966.5064)" stroke="none" dominant-baseline="middle" text-anchor="middle">E</text></g><g stroke-linejoin="miter" fill-opacity="1.0" fill="rgb(255,255,255)" stroke="rgb(0,0,0)" stroke-linecap="butt" stroke-miterlimit="10.0" stroke-opacity="1.0" stroke-width="5.583629154612598"><path d="M 1358.2532,966.5064 c 0.0000,-59.7866 -48.4666,-108.2532 -108.2532 -108.2532c -59.7866,-0.0000 -108.2532,48.4666 -108.2532 108.2532c -0.0000,59.7866 48.4666,108.2532 108.2532 108.2532c 59.7866,0.0000 108.2532,-48.4666 108.2532 -108.2532Z"/></g><g stroke-linejoin="miter" fill-opacity="1.0" font-size="144.33756729740642px" fill="rgb(0,0,0)" stroke="rgb(0,0,0)" stroke-linecap="butt" stroke-miterlimit="10.0" stroke-opacity="1.0" stroke-width="5.583629154612598"><text transform="matrix(1.0000,0.0000,0.0000,1.0000,1250.0000,966.5064)" stroke="none" dominant-baseline="middle" text-anchor="middle">B</text></g><g stroke-linejoin="miter" fill-opacity="1.0" fill="rgb(255,255,255)" stroke="rgb(0,0,0)" stroke-linecap="butt" stroke-miterlimit="10.0" stroke-opacity="1.0" stroke-width="5.583629154612598"><path d="M 1108.2532,1399.5191 c 0.0000,-59.7866 -48.4666,-108.2532 -108.2532 -108.2532c -59.7866,-0.0000 -108.2532,48.4666 -108.2532 108.2532c -0.0000,59.7866 48.4666,108.2532 108.2532 108.2532c 59.7866,0.0000 108.2532,-48.4666 108.2532 -108.2532Z"/></g><g stroke-linejoin="miter" fill-opacity="1.0" font-size="144.33756729740642px" fill="rgb(0,0,0)" stroke="rgb(0,0,0)" stroke-linecap="butt" stroke-miterlimit="10.0" stroke-opacity="1.0" stroke-width="5.583629154612598"><text transform="matrix(1.0000,0.0000,0.0000,1.0000,1000.0000,1399.5191)" stroke="none" dominant-baseline="middle" text-anchor="middle">Gs</text></g><g stroke-linejoin="miter" fill-opacity="1.0" fill="rgb(0,0,255)" stroke="rgb(0,0,0)" stroke-linecap="butt" stroke-miterlimit="10.0" stroke-opacity="1.0" stroke-width="5.583629154612598"><path d="M 1000.0000,533.4936 l -250.0000,433.0127 h 500.0000 Z"/></g><g stroke-linejoin="miter" fill-opacity="1.0" fill="rgb(255,255,255)" stroke="rgb(0,0,0)" stroke-linecap="butt" stroke-miterlimit="10.0" stroke-opacity="1.0" stroke-width="5.583629154612598"><path d="M 858.2532,966.5064 c 0.0000,-59.7866 -48.4666,-108.2532 -108.2532 -108.2532c -59.7866,-0.0000 -108.2532,48.4666 -108.2532 108.2532c -0.0000,59.7866 48.4666,108.2532 108.2532 108.2532c 59.7866,0.0000 108.2532,-48.4666 108.2532 -108.2532Z"/></g><g stroke-linejoin="miter" fill-opacity="1.0" font-size="144.33756729740642px" fill="rgb(0,0,0)" stroke="rgb(0,0,0)" stroke-linecap="butt" stroke-miterlimit="10.0" stroke-opacity="1.0" stroke-width="5.583629154612598"><text transform="matrix(1.0000,0.0000,0.0000,1.0000,750.0000,966.5064)" stroke="none" dominant-baseline="middle" text-anchor="middle">E</text></g><g stroke-linejoin="miter" fill-opacity="1.0" fill="rgb(255,255,255)" stroke="rgb(0,0,0)" stroke-linecap="butt" stroke-miterlimit="10.0" stroke-opacity="1.0" stroke-width="5.583629154612598"><path d="M 1358.2532,966.5064 c 0.0000,-59.7866 -48.4666,-108.2532 -108.2532 -108.2532c -59.7866,-0.0000 -108.2532,48.4666 -108.2532 108.2532c -0.0000,59.7866 48.4666,108.2532 108.2532 108.2532c 59.7866,0.0000 108.2532,-48.4666 108.2532 -108.2532Z"/></g><g stroke-linejoin="miter" fill-opacity="1.0" font-size="144.33756729740642px" fill="rgb(0,0,0)" stroke="rgb(0,0,0)" stroke-linecap="butt" stroke-miterlimit="10.0" stroke-opacity="1.0" stroke-width="5.583629154612598"><text transform="matrix(1.0000,0.0000,0.0000,1.0000,1250.0000,966.5064)" stroke="none" dominant-baseline="middle" text-anchor="middle">B</text></g><g stroke-linejoin="miter" fill-opacity="1.0" fill="rgb(255,255,255)" stroke="rgb(0,0,0)" stroke-linecap="butt" stroke-miterlimit="10.0" stroke-opacity="1.0" stroke-width="5.583629154612598"><path d="M 1108.2532,533.4936 c 0.0000,-59.7866 -48.4666,-108.2532 -108.2532 -108.2532c -59.7866,-0.0000 -108.2532,48.4666 -108.2532 108.2532c -0.0000,59.7866 48.4666,108.2532 108.2532 108.2532c 59.7866,0.0000 108.2532,-48.4666 108.2532 -108.2532Z"/></g><g stroke-linejoin="miter" fill-opacity="1.0" font-size="144.33756729740642px" fill="rgb(0,0,0)" stroke="rgb(0,0,0)" stroke-linecap="butt" stroke-miterlimit="10.0" stroke-opacity="1.0" stroke-width="5.583629154612598"><text transform="matrix(1.0000,0.0000,0.0000,1.0000,1000.0000,533.4936)" stroke="none" dominant-baseline="middle" text-anchor="middle">G</text></g><g stroke-linejoin="miter" fill-opacity="1.0" fill="rgb(255,0,0)" stroke="rgb(0,0,0)" stroke-linecap="butt" stroke-miterlimit="10.0" stroke-opacity="1.0" stroke-width="5.583629154612598"><path d="M 1000.0000,533.4936 l -250.0000,-433.0127 h 500.0000 Z"/></g><g stroke-linejoin="miter" fill-opacity="1.0" fill="rgb(255,255,255)" stroke="rgb(0,0,0)" stroke-linecap="butt" stroke-miterlimit="10.0" stroke-opacity="1.0" stroke-width="5.583629154612598"><path d="M 858.2532,100.4809 c 0.0000,-59.7866 -48.4666,-108.2532 -108.2532 -108.2532c -59.7866,-0.0000 -108.2532,48.4666 -108.2532 108.2532c -0.0000,59.7866 48.4666,108.2532 108.2532 108.2532c 59.7866,0.0000 108.2532,-48.4666 108.2532 -108.2532Z"/></g><g stroke-linejoin="miter" fill-opacity="1.0" font-size="144.33756729740642px" fill="rgb(0,0,0)" stroke="rgb(0,0,0)" stroke-linecap="butt" stroke-miterlimit="10.0" stroke-opacity="1.0" stroke-width="5.583629154612598"><text transform="matrix(1.0000,0.0000,0.0000,1.0000,750.0000,100.4809)" stroke="none" dominant-baseline="middle" text-anchor="middle">Ds</text></g><g stroke-linejoin="miter" fill-opacity="1.0" fill="rgb(255,255,255)" stroke="rgb(0,0,0)" stroke-linecap="butt" stroke-miterlimit="10.0" stroke-opacity="1.0" stroke-width="5.583629154612598"><path d="M 1358.2532,100.4809 c 0.0000,-59.7866 -48.4666,-108.2532 -108.2532 -108.2532c -59.7866,-0.0000 -108.2532,48.4666 -108.2532 108.2532c -0.0000,59.7866 48.4666,108.2532 108.2532 108.2532c 59.7866,0.0000 108.2532,-48.4666 108.2532 -108.2532Z"/></g><g stroke-linejoin="miter" fill-opacity="1.0" font-size="144.33756729740642px" fill="rgb(0,0,0)" stroke="rgb(0,0,0)" stroke-linecap="butt" stroke-miterlimit="10.0" stroke-opacity="1.0" stroke-width="5.583629154612598"><text transform="matrix(1.0000,0.0000,0.0000,1.0000,1250.0000,100.4809)" stroke="none" dominant-baseline="middle" text-anchor="middle">As</text></g><g stroke-linejoin="miter" fill-opacity="1.0" fill="rgb(255,255,255)" stroke="rgb(0,0,0)" stroke-linecap="butt" stroke-miterlimit="10.0" stroke-opacity="1.0" stroke-width="5.583629154612598"><path d="M 1108.2532,533.4936 c 0.0000,-59.7866 -48.4666,-108.2532 -108.2532 -108.2532c -59.7866,-0.0000 -108.2532,48.4666 -108.2532 108.2532c -0.0000,59.7866 48.4666,108.2532 108.2532 108.2532c 59.7866,0.0000 108.2532,-48.4666 108.2532 -108.2532Z"/></g><g stroke-linejoin="miter" fill-opacity="1.0" font-size="144.33756729740642px" fill="rgb(0,0,0)" stroke="rgb(0,0,0)" stroke-linecap="butt" stroke-miterlimit="10.0" stroke-opacity="1.0" stroke-width="5.583629154612598"><text transform="matrix(1.0000,0.0000,0.0000,1.0000,1000.0000,533.4936)" stroke="none" dominant-baseline="middle" text-anchor="middle">G</text></g><g stroke-linejoin="miter" fill-opacity="1.0" fill="rgb(0,0,255)" stroke="rgb(0,0,0)" stroke-linecap="butt" stroke-miterlimit="10.0" stroke-opacity="1.0" stroke-width="5.583629154612598"><path d="M 750.0000,966.5064 l -250.0000,433.0127 h 500.0000 Z"/></g><g stroke-linejoin="miter" fill-opacity="1.0" fill="rgb(255,255,255)" stroke="rgb(0,0,0)" stroke-linecap="butt" stroke-miterlimit="10.0" stroke-opacity="1.0" stroke-width="5.583629154612598"><path d="M 608.2532,1399.5191 c 0.0000,-59.7866 -48.4666,-108.2532 -108.2532 -108.2532c -59.7866,-0.0000 -108.2532,48.4666 -108.2532 108.2532c -0.0000,59.7866 48.4666,108.2532 108.2532 108.2532c 59.7866,0.0000 108.2532,-48.4666 108.2532 -108.2532Z"/></g><g stroke-linejoin="miter" fill-opacity="1.0" font-size="144.33756729740642px" fill="rgb(0,0,0)" stroke="rgb(0,0,0)" stroke-linecap="butt" stroke-miterlimit="10.0" stroke-opacity="1.0" stroke-width="5.583629154612598"><text transform="matrix(1.0000,0.0000,0.0000,1.0000,500.0000,1399.5191)" stroke="none" dominant-baseline="middle" text-anchor="middle">Cs</text></g><g stroke-linejoin="miter" fill-opacity="1.0" fill="rgb(255,255,255)" stroke="rgb(0,0,0)" stroke-linecap="butt" stroke-miterlimit="10.0" stroke-opacity="1.0" stroke-width="5.583629154612598"><path d="M 1108.2532,1399.5191 c 0.0000,-59.7866 -48.4666,-108.2532 -108.2532 -108.2532c -59.7866,-0.0000 -108.2532,48.4666 -108.2532 108.2532c -0.0000,59.7866 48.4666,108.2532 108.2532 108.2532c 59.7866,0.0000 108.2532,-48.4666 108.2532 -108.2532Z"/></g><g stroke-linejoin="miter" fill-opacity="1.0" font-size="144.33756729740642px" fill="rgb(0,0,0)" stroke="rgb(0,0,0)" stroke-linecap="butt" stroke-miterlimit="10.0" stroke-opacity="1.0" stroke-width="5.583629154612598"><text transform="matrix(1.0000,0.0000,0.0000,1.0000,1000.0000,1399.5191)" stroke="none" dominant-baseline="middle" text-anchor="middle">Gs</text></g><g stroke-linejoin="miter" fill-opacity="1.0" fill="rgb(255,255,255)" stroke="rgb(0,0,0)" stroke-linecap="butt" stroke-miterlimit="10.0" stroke-opacity="1.0" stroke-width="5.583629154612598"><path d="M 858.2532,966.5064 c 0.0000,-59.7866 -48.4666,-108.2532 -108.2532 -108.2532c -59.7866,-0.0000 -108.2532,48.4666 -108.2532 108.2532c -0.0000,59.7866 48.4666,108.2532 108.2532 108.2532c 59.7866,0.0000 108.2532,-48.4666 108.2532 -108.2532Z"/></g><g stroke-linejoin="miter" fill-opacity="1.0" font-size="144.33756729740642px" fill="rgb(0,0,0)" stroke="rgb(0,0,0)" stroke-linecap="butt" stroke-miterlimit="10.0" stroke-opacity="1.0" stroke-width="5.583629154612598"><text transform="matrix(1.0000,0.0000,0.0000,1.0000,750.0000,966.5064)" stroke="none" dominant-baseline="middle" text-anchor="middle">E</text></g><g stroke-linejoin="miter" fill-opacity="1.0" fill="rgb(255,0,0)" stroke="rgb(0,0,0)" stroke-linecap="butt" stroke-miterlimit="10.0" stroke-opacity="1.0" stroke-width="5.583629154612598"><path d="M 750.0000,966.5064 l -250.0000,-433.0127 h 500.0000 Z"/></g><g stroke-linejoin="miter" fill-opacity="1.0" fill="rgb(255,255,255)" stroke="rgb(0,0,0)" stroke-linecap="butt" stroke-miterlimit="10.0" stroke-opacity="1.0" stroke-width="5.583629154612598"><path d="M 608.2532,533.4936 c 0.0000,-59.7866 -48.4666,-108.2532 -108.2532 -108.2532c -59.7866,-0.0000 -108.2532,48.4666 -108.2532 108.2532c -0.0000,59.7866 48.4666,108.2532 108.2532 108.2532c 59.7866,0.0000 108.2532,-48.4666 108.2532 -108.2532Z"/></g><g stroke-linejoin="miter" fill-opacity="1.0" font-size="144.33756729740642px" fill="rgb(0,0,0)" stroke="rgb(0,0,0)" stroke-linecap="butt" stroke-miterlimit="10.0" stroke-opacity="1.0" stroke-width="5.583629154612598"><text transform="matrix(1.0000,0.0000,0.0000,1.0000,500.0000,533.4936)" stroke="none" dominant-baseline="middle" text-anchor="middle">C</text></g><g stroke-linejoin="miter" fill-opacity="1.0" fill="rgb(255,255,255)" stroke="rgb(0,0,0)" stroke-linecap="butt" stroke-miterlimit="10.0" stroke-opacity="1.0" stroke-width="5.583629154612598"><path d="M 1108.2532,533.4936 c 0.0000,-59.7866 -48.4666,-108.2532 -108.2532 -108.2532c -59.7866,-0.0000 -108.2532,48.4666 -108.2532 108.2532c -0.0000,59.7866 48.4666,108.2532 108.2532 108.2532c 59.7866,0.0000 108.2532,-48.4666 108.2532 -108.2532Z"/></g><g stroke-linejoin="miter" fill-opacity="1.0" font-size="144.33756729740642px" fill="rgb(0,0,0)" stroke="rgb(0,0,0)" stroke-linecap="butt" stroke-miterlimit="10.0" stroke-opacity="1.0" stroke-width="5.583629154612598"><text transform="matrix(1.0000,0.0000,0.0000,1.0000,1000.0000,533.4936)" stroke="none" dominant-baseline="middle" text-anchor="middle">G</text></g><g stroke-linejoin="miter" fill-opacity="1.0" fill="rgb(255,255,255)" stroke="rgb(0,0,0)" stroke-linecap="butt" stroke-miterlimit="10.0" stroke-opacity="1.0" stroke-width="5.583629154612598"><path d="M 858.2532,966.5064 c 0.0000,-59.7866 -48.4666,-108.2532 -108.2532 -108.2532c -59.7866,-0.0000 -108.2532,48.4666 -108.2532 108.2532c -0.0000,59.7866 48.4666,108.2532 108.2532 108.2532c 59.7866,0.0000 108.2532,-48.4666 108.2532 -108.2532Z"/></g><g stroke-linejoin="miter" fill-opacity="1.0" font-size="144.33756729740642px" fill="rgb(0,0,0)" stroke="rgb(0,0,0)" stroke-linecap="butt" stroke-miterlimit="10.0" stroke-opacity="1.0" stroke-width="5.583629154612598"><text transform="matrix(1.0000,0.0000,0.0000,1.0000,750.0000,966.5064)" stroke="none" dominant-baseline="middle" text-anchor="middle">E</text></g><g stroke-linejoin="miter" fill-opacity="1.0" fill="rgb(0,0,255)" stroke="rgb(0,0,0)" stroke-linecap="butt" stroke-miterlimit="10.0" stroke-opacity="1.0" stroke-width="5.583629154612598"><path d="M 750.0000,100.4809 l -250.0000,433.0127 h 500.0000 Z"/></g><g stroke-linejoin="miter" fill-opacity="1.0" fill="rgb(255,255,255)" stroke="rgb(0,0,0)" stroke-linecap="butt" stroke-miterlimit="10.0" stroke-opacity="1.0" stroke-width="5.583629154612598"><path d="M 608.2532,533.4936 c 0.0000,-59.7866 -48.4666,-108.2532 -108.2532 -108.2532c -59.7866,-0.0000 -108.2532,48.4666 -108.2532 108.2532c -0.0000,59.7866 48.4666,108.2532 108.2532 108.2532c 59.7866,0.0000 108.2532,-48.4666 108.2532 -108.2532Z"/></g><g stroke-linejoin="miter" fill-opacity="1.0" font-size="144.33756729740642px" fill="rgb(0,0,0)" stroke="rgb(0,0,0)" stroke-linecap="butt" stroke-miterlimit="10.0" stroke-opacity="1.0" stroke-width="5.583629154612598"><text transform="matrix(1.0000,0.0000,0.0000,1.0000,500.0000,533.4936)" stroke="none" dominant-baseline="middle" text-anchor="middle">C</text></g><g stroke-linejoin="miter" fill-opacity="1.0" fill="rgb(255,255,255)" stroke="rgb(0,0,0)" stroke-linecap="butt" stroke-miterlimit="10.0" stroke-opacity="1.0" stroke-width="5.583629154612598"><path d="M 1108.2532,533.4936 c 0.0000,-59.7866 -48.4666,-108.2532 -108.2532 -108.2532c -59.7866,-0.0000 -108.2532,48.4666 -108.2532 108.2532c -0.0000,59.7866 48.4666,108.2532 108.2532 108.2532c 59.7866,0.0000 108.2532,-48.4666 108.2532 -108.2532Z"/></g><g stroke-linejoin="miter" fill-opacity="1.0" font-size="144.33756729740642px" fill="rgb(0,0,0)" stroke="rgb(0,0,0)" stroke-linecap="butt" stroke-miterlimit="10.0" stroke-opacity="1.0" stroke-width="5.583629154612598"><text transform="matrix(1.0000,0.0000,0.0000,1.0000,1000.0000,533.4936)" stroke="none" dominant-baseline="middle" text-anchor="middle">G</text></g><g stroke-linejoin="miter" fill-opacity="1.0" fill="rgb(255,255,255)" stroke="rgb(0,0,0)" stroke-linecap="butt" stroke-miterlimit="10.0" stroke-opacity="1.0" stroke-width="5.583629154612598"><path d="M 858.2532,100.4809 c 0.0000,-59.7866 -48.4666,-108.2532 -108.2532 -108.2532c -59.7866,-0.0000 -108.2532,48.4666 -108.2532 108.2532c -0.0000,59.7866 48.4666,108.2532 108.2532 108.2532c 59.7866,0.0000 108.2532,-48.4666 108.2532 -108.2532Z"/></g><g stroke-linejoin="miter" fill-opacity="1.0" font-size="144.33756729740642px" fill="rgb(0,0,0)" stroke="rgb(0,0,0)" stroke-linecap="butt" stroke-miterlimit="10.0" stroke-opacity="1.0" stroke-width="5.583629154612598"><text transform="matrix(1.0000,0.0000,0.0000,1.0000,750.0000,100.4809)" stroke="none" dominant-baseline="middle" text-anchor="middle">Ds</text></g><g stroke-linejoin="miter" fill-opacity="1.0" fill="rgb(255,0,0)" stroke="rgb(0,0,0)" stroke-linecap="butt" stroke-miterlimit="10.0" stroke-opacity="1.0" stroke-width="5.583629154612598"><path d="M 500.0000,1399.5191 l -250.0000,-433.0127 h 500.0000 Z"/></g><g stroke-linejoin="miter" fill-opacity="1.0" fill="rgb(255,255,255)" stroke="rgb(0,0,0)" stroke-linecap="butt" stroke-miterlimit="10.0" stroke-opacity="1.0" stroke-width="5.583629154612598"><path d="M 358.2532,966.5064 c 0.0000,-59.7866 -48.4666,-108.2532 -108.2532 -108.2532c -59.7866,-0.0000 -108.2532,48.4666 -108.2532 108.2532c -0.0000,59.7866 48.4666,108.2532 108.2532 108.2532c 59.7866,0.0000 108.2532,-48.4666 108.2532 -108.2532Z"/></g><g stroke-linejoin="miter" fill-opacity="1.0" font-size="144.33756729740642px" fill="rgb(0,0,0)" stroke="rgb(0,0,0)" stroke-linecap="butt" stroke-miterlimit="10.0" stroke-opacity="1.0" stroke-width="5.583629154612598"><text transform="matrix(1.0000,0.0000,0.0000,1.0000,250.0000,966.5064)" stroke="none" dominant-baseline="middle" text-anchor="middle">A</text></g><g stroke-linejoin="miter" fill-opacity="1.0" fill="rgb(255,255,255)" stroke="rgb(0,0,0)" stroke-linecap="butt" stroke-miterlimit="10.0" stroke-opacity="1.0" stroke-width="5.583629154612598"><path d="M 858.2532,966.5064 c 0.0000,-59.7866 -48.4666,-108.2532 -108.2532 -108.2532c -59.7866,-0.0000 -108.2532,48.4666 -108.2532 108.2532c -0.0000,59.7866 48.4666,108.2532 108.2532 108.2532c 59.7866,0.0000 108.2532,-48.4666 108.2532 -108.2532Z"/></g><g stroke-linejoin="miter" fill-opacity="1.0" font-size="144.33756729740642px" fill="rgb(0,0,0)" stroke="rgb(0,0,0)" stroke-linecap="butt" stroke-miterlimit="10.0" stroke-opacity="1.0" stroke-width="5.583629154612598"><text transform="matrix(1.0000,0.0000,0.0000,1.0000,750.0000,966.5064)" stroke="none" dominant-baseline="middle" text-anchor="middle">E</text></g><g stroke-linejoin="miter" fill-opacity="1.0" fill="rgb(255,255,255)" stroke="rgb(0,0,0)" stroke-linecap="butt" stroke-miterlimit="10.0" stroke-opacity="1.0" stroke-width="5.583629154612598"><path d="M 608.2532,1399.5191 c 0.0000,-59.7866 -48.4666,-108.2532 -108.2532 -108.2532c -59.7866,-0.0000 -108.2532,48.4666 -108.2532 108.2532c -0.0000,59.7866 48.4666,108.2532 108.2532 108.2532c 59.7866,0.0000 108.2532,-48.4666 108.2532 -108.2532Z"/></g><g stroke-linejoin="miter" fill-opacity="1.0" font-size="144.33756729740642px" fill="rgb(0,0,0)" stroke="rgb(0,0,0)" stroke-linecap="butt" stroke-miterlimit="10.0" stroke-opacity="1.0" stroke-width="5.583629154612598"><text transform="matrix(1.0000,0.0000,0.0000,1.0000,500.0000,1399.5191)" stroke="none" dominant-baseline="middle" text-anchor="middle">Cs</text></g><g stroke-linejoin="miter" fill-opacity="1.0" fill="rgb(0,0,255)" stroke="rgb(0,0,0)" stroke-linecap="butt" stroke-miterlimit="10.0" stroke-opacity="1.0" stroke-width="5.583629154612598"><path d="M 500.0000,533.4936 l -250.0000,433.0127 h 500.0000 Z"/></g><g stroke-linejoin="miter" fill-opacity="1.0" fill="rgb(255,255,255)" stroke="rgb(0,0,0)" stroke-linecap="butt" stroke-miterlimit="10.0" stroke-opacity="1.0" stroke-width="5.583629154612598"><path d="M 358.2532,966.5064 c 0.0000,-59.7866 -48.4666,-108.2532 -108.2532 -108.2532c -59.7866,-0.0000 -108.2532,48.4666 -108.2532 108.2532c -0.0000,59.7866 48.4666,108.2532 108.2532 108.2532c 59.7866,0.0000 108.2532,-48.4666 108.2532 -108.2532Z"/></g><g stroke-linejoin="miter" fill-opacity="1.0" font-size="144.33756729740642px" fill="rgb(0,0,0)" stroke="rgb(0,0,0)" stroke-linecap="butt" stroke-miterlimit="10.0" stroke-opacity="1.0" stroke-width="5.583629154612598"><text transform="matrix(1.0000,0.0000,0.0000,1.0000,250.0000,966.5064)" stroke="none" dominant-baseline="middle" text-anchor="middle">A</text></g><g stroke-linejoin="miter" fill-opacity="1.0" fill="rgb(255,255,255)" stroke="rgb(0,0,0)" stroke-linecap="butt" stroke-miterlimit="10.0" stroke-opacity="1.0" stroke-width="5.583629154612598"><path d="M 858.2532,966.5064 c 0.0000,-59.7866 -48.4666,-108.2532 -108.2532 -108.2532c -59.7866,-0.0000 -108.2532,48.4666 -108.2532 108.2532c -0.0000,59.7866 48.4666,108.2532 108.2532 108.2532c 59.7866,0.0000 108.2532,-48.4666 108.2532 -108.2532Z"/></g><g stroke-linejoin="miter" fill-opacity="1.0" font-size="144.33756729740642px" fill="rgb(0,0,0)" stroke="rgb(0,0,0)" stroke-linecap="butt" stroke-miterlimit="10.0" stroke-opacity="1.0" stroke-width="5.583629154612598"><text transform="matrix(1.0000,0.0000,0.0000,1.0000,750.0000,966.5064)" stroke="none" dominant-baseline="middle" text-anchor="middle">E</text></g><g stroke-linejoin="miter" fill-opacity="1.0" fill="rgb(255,255,255)" stroke="rgb(0,0,0)" stroke-linecap="butt" stroke-miterlimit="10.0" stroke-opacity="1.0" stroke-width="5.583629154612598"><path d="M 608.2532,533.4936 c 0.0000,-59.7866 -48.4666,-108.2532 -108.2532 -108.2532c -59.7866,-0.0000 -108.2532,48.4666 -108.2532 108.2532c -0.0000,59.7866 48.4666,108.2532 108.2532 108.2532c 59.7866,0.0000 108.2532,-48.4666 108.2532 -108.2532Z"/></g><g stroke-linejoin="miter" fill-opacity="1.0" font-size="144.33756729740642px" fill="rgb(0,0,0)" stroke="rgb(0,0,0)" stroke-linecap="butt" stroke-miterlimit="10.0" stroke-opacity="1.0" stroke-width="5.583629154612598"><text transform="matrix(1.0000,0.0000,0.0000,1.0000,500.0000,533.4936)" stroke="none" dominant-baseline="middle" text-anchor="middle">C</text></g><g stroke-linejoin="miter" fill-opacity="1.0" fill="rgb(255,0,0)" stroke="rgb(0,0,0)" stroke-linecap="butt" stroke-miterlimit="10.0" stroke-opacity="1.0" stroke-width="5.583629154612598"><path d="M 500.0000,533.4936 l -250.0000,-433.0127 h 500.0000 Z"/></g><g stroke-linejoin="miter" fill-opacity="1.0" fill="rgb(255,255,255)" stroke="rgb(0,0,0)" stroke-linecap="butt" stroke-miterlimit="10.0" stroke-opacity="1.0" stroke-width="5.583629154612598"><path d="M 358.2532,100.4809 c 0.0000,-59.7866 -48.4666,-108.2532 -108.2532 -108.2532c -59.7866,-0.0000 -108.2532,48.4666 -108.2532 108.2532c -0.0000,59.7866 48.4666,108.2532 108.2532 108.2532c 59.7866,0.0000 108.2532,-48.4666 108.2532 -108.2532Z"/></g><g stroke-linejoin="miter" fill-opacity="1.0" font-size="144.33756729740642px" fill="rgb(0,0,0)" stroke="rgb(0,0,0)" stroke-linecap="butt" stroke-miterlimit="10.0" stroke-opacity="1.0" stroke-width="5.583629154612598"><text transform="matrix(1.0000,0.0000,0.0000,1.0000,250.0000,100.4809)" stroke="none" dominant-baseline="middle" text-anchor="middle">Gs</text></g><g stroke-linejoin="miter" fill-opacity="1.0" fill="rgb(255,255,255)" stroke="rgb(0,0,0)" stroke-linecap="butt" stroke-miterlimit="10.0" stroke-opacity="1.0" stroke-width="5.583629154612598"><path d="M 858.2532,100.4809 c 0.0000,-59.7866 -48.4666,-108.2532 -108.2532 -108.2532c -59.7866,-0.0000 -108.2532,48.4666 -108.2532 108.2532c -0.0000,59.7866 48.4666,108.2532 108.2532 108.2532c 59.7866,0.0000 108.2532,-48.4666 108.2532 -108.2532Z"/></g><g stroke-linejoin="miter" fill-opacity="1.0" font-size="144.33756729740642px" fill="rgb(0,0,0)" stroke="rgb(0,0,0)" stroke-linecap="butt" stroke-miterlimit="10.0" stroke-opacity="1.0" stroke-width="5.583629154612598"><text transform="matrix(1.0000,0.0000,0.0000,1.0000,750.0000,100.4809)" stroke="none" dominant-baseline="middle" text-anchor="middle">Ds</text></g><g stroke-linejoin="miter" fill-opacity="1.0" fill="rgb(255,255,255)" stroke="rgb(0,0,0)" stroke-linecap="butt" stroke-miterlimit="10.0" stroke-opacity="1.0" stroke-width="5.583629154612598"><path d="M 608.2532,533.4936 c 0.0000,-59.7866 -48.4666,-108.2532 -108.2532 -108.2532c -59.7866,-0.0000 -108.2532,48.4666 -108.2532 108.2532c -0.0000,59.7866 48.4666,108.2532 108.2532 108.2532c 59.7866,0.0000 108.2532,-48.4666 108.2532 -108.2532Z"/></g><g stroke-linejoin="miter" fill-opacity="1.0" font-size="144.33756729740642px" fill="rgb(0,0,0)" stroke="rgb(0,0,0)" stroke-linecap="butt" stroke-miterlimit="10.0" stroke-opacity="1.0" stroke-width="5.583629154612598"><text transform="matrix(1.0000,0.0000,0.0000,1.0000,500.0000,533.4936)" stroke="none" dominant-baseline="middle" text-anchor="middle">C</text></g><g stroke-linejoin="miter" fill-opacity="1.0" fill="rgb(0,0,255)" stroke="rgb(0,0,0)" stroke-linecap="butt" stroke-miterlimit="10.0" stroke-opacity="1.0" stroke-width="5.583629154612598"><path d="M 250.0000,966.5064 l -250.0000,433.0127 h 500.0000 Z"/></g><g stroke-linejoin="miter" fill-opacity="1.0" fill="rgb(255,255,255)" stroke="rgb(0,0,0)" stroke-linecap="butt" stroke-miterlimit="10.0" stroke-opacity="1.0" stroke-width="5.583629154612598"><path d="M 108.2532,1399.5191 c 0.0000,-59.7866 -48.4666,-108.2532 -108.2532 -108.2532c -59.7866,-0.0000 -108.2532,48.4666 -108.2532 108.2532c -0.0000,59.7866 48.4666,108.2532 108.2532 108.2532c 59.7866,0.0000 108.2532,-48.4666 108.2532 -108.2532Z"/></g><g stroke-linejoin="miter" fill-opacity="1.0" font-size="144.33756729740642px" fill="rgb(0,0,0)" stroke="rgb(0,0,0)" stroke-linecap="butt" stroke-miterlimit="10.0" stroke-opacity="1.0" stroke-width="5.583629154612598"><text transform="matrix(1.0000,0.0000,0.0000,1.0000,0.0000,1399.5191)" stroke="none" dominant-baseline="middle" text-anchor="middle">Fs</text></g><g stroke-linejoin="miter" fill-opacity="1.0" fill="rgb(255,255,255)" stroke="rgb(0,0,0)" stroke-linecap="butt" stroke-miterlimit="10.0" stroke-opacity="1.0" stroke-width="5.583629154612598"><path d="M 608.2532,1399.5191 c 0.0000,-59.7866 -48.4666,-108.2532 -108.2532 -108.2532c -59.7866,-0.0000 -108.2532,48.4666 -108.2532 108.2532c -0.0000,59.7866 48.4666,108.2532 108.2532 108.2532c 59.7866,0.0000 108.2532,-48.4666 108.2532 -108.2532Z"/></g><g stroke-linejoin="miter" fill-opacity="1.0" font-size="144.33756729740642px" fill="rgb(0,0,0)" stroke="rgb(0,0,0)" stroke-linecap="butt" stroke-miterlimit="10.0" stroke-opacity="1.0" stroke-width="5.583629154612598"><text transform="matrix(1.0000,0.0000,0.0000,1.0000,500.0000,1399.5191)" stroke="none" dominant-baseline="middle" text-anchor="middle">Cs</text></g><g stroke-linejoin="miter" fill-opacity="1.0" fill="rgb(255,255,255)" stroke="rgb(0,0,0)" stroke-linecap="butt" stroke-miterlimit="10.0" stroke-opacity="1.0" stroke-width="5.583629154612598"><path d="M 358.2532,966.5064 c 0.0000,-59.7866 -48.4666,-108.2532 -108.2532 -108.2532c -59.7866,-0.0000 -108.2532,48.4666 -108.2532 108.2532c -0.0000,59.7866 48.4666,108.2532 108.2532 108.2532c 59.7866,0.0000 108.2532,-48.4666 108.2532 -108.2532Z"/></g><g stroke-linejoin="miter" fill-opacity="1.0" font-size="144.33756729740642px" fill="rgb(0,0,0)" stroke="rgb(0,0,0)" stroke-linecap="butt" stroke-miterlimit="10.0" stroke-opacity="1.0" stroke-width="5.583629154612598"><text transform="matrix(1.0000,0.0000,0.0000,1.0000,250.0000,966.5064)" stroke="none" dominant-baseline="middle" text-anchor="middle">A</text></g><g stroke-linejoin="miter" fill-opacity="1.0" fill="rgb(255,0,0)" stroke="rgb(0,0,0)" stroke-linecap="butt" stroke-miterlimit="10.0" stroke-opacity="1.0" stroke-width="5.583629154612598"><path d="M 250.0000,966.5064 l -250.0000,-433.0127 h 500.0000 Z"/></g><g stroke-linejoin="miter" fill-opacity="1.0" fill="rgb(255,255,255)" stroke="rgb(0,0,0)" stroke-linecap="butt" stroke-miterlimit="10.0" stroke-opacity="1.0" stroke-width="5.583629154612598"><path d="M 108.2532,533.4936 c 0.0000,-59.7866 -48.4666,-108.2532 -108.2532 -108.2532c -59.7866,-0.0000 -108.2532,48.4666 -108.2532 108.2532c -0.0000,59.7866 48.4666,108.2532 108.2532 108.2532c 59.7866,0.0000 108.2532,-48.4666 108.2532 -108.2532Z"/></g><g stroke-linejoin="miter" fill-opacity="1.0" font-size="144.33756729740642px" fill="rgb(0,0,0)" stroke="rgb(0,0,0)" stroke-linecap="butt" stroke-miterlimit="10.0" stroke-opacity="1.0" stroke-width="5.583629154612598"><text transform="matrix(1.0000,0.0000,0.0000,1.0000,0.0000,533.4936)" stroke="none" dominant-baseline="middle" text-anchor="middle">F</text></g><g stroke-linejoin="miter" fill-opacity="1.0" fill="rgb(255,255,255)" stroke="rgb(0,0,0)" stroke-linecap="butt" stroke-miterlimit="10.0" stroke-opacity="1.0" stroke-width="5.583629154612598"><path d="M 608.2532,533.4936 c 0.0000,-59.7866 -48.4666,-108.2532 -108.2532 -108.2532c -59.7866,-0.0000 -108.2532,48.4666 -108.2532 108.2532c -0.0000,59.7866 48.4666,108.2532 108.2532 108.2532c 59.7866,0.0000 108.2532,-48.4666 108.2532 -108.2532Z"/></g><g stroke-linejoin="miter" fill-opacity="1.0" font-size="144.33756729740642px" fill="rgb(0,0,0)" stroke="rgb(0,0,0)" stroke-linecap="butt" stroke-miterlimit="10.0" stroke-opacity="1.0" stroke-width="5.583629154612598"><text transform="matrix(1.0000,0.0000,0.0000,1.0000,500.0000,533.4936)" stroke="none" dominant-baseline="middle" text-anchor="middle">C</text></g><g stroke-linejoin="miter" fill-opacity="1.0" fill="rgb(255,255,255)" stroke="rgb(0,0,0)" stroke-linecap="butt" stroke-miterlimit="10.0" stroke-opacity="1.0" stroke-width="5.583629154612598"><path d="M 358.2532,966.5064 c 0.0000,-59.7866 -48.4666,-108.2532 -108.2532 -108.2532c -59.7866,-0.0000 -108.2532,48.4666 -108.2532 108.2532c -0.0000,59.7866 48.4666,108.2532 108.2532 108.2532c 59.7866,0.0000 108.2532,-48.4666 108.2532 -108.2532Z"/></g><g stroke-linejoin="miter" fill-opacity="1.0" font-size="144.33756729740642px" fill="rgb(0,0,0)" stroke="rgb(0,0,0)" stroke-linecap="butt" stroke-miterlimit="10.0" stroke-opacity="1.0" stroke-width="5.583629154612598"><text transform="matrix(1.0000,0.0000,0.0000,1.0000,250.0000,966.5064)" stroke="none" dominant-baseline="middle" text-anchor="middle">A</text></g><g stroke-linejoin="miter" fill-opacity="1.0" fill="rgb(0,0,255)" stroke="rgb(0,0,0)" stroke-linecap="butt" stroke-miterlimit="10.0" stroke-opacity="1.0" stroke-width="5.583629154612598"><path d="M 250.0000,100.4809 l -250.0000,433.0127 h 500.0000 Z"/></g><g stroke-linejoin="miter" fill-opacity="1.0" fill="rgb(255,255,255)" stroke="rgb(0,0,0)" stroke-linecap="butt" stroke-miterlimit="10.0" stroke-opacity="1.0" stroke-width="5.583629154612598"><path d="M 108.2532,533.4936 c 0.0000,-59.7866 -48.4666,-108.2532 -108.2532 -108.2532c -59.7866,-0.0000 -108.2532,48.4666 -108.2532 108.2532c -0.0000,59.7866 48.4666,108.2532 108.2532 108.2532c 59.7866,0.0000 108.2532,-48.4666 108.2532 -108.2532Z"/></g><g stroke-linejoin="miter" fill-opacity="1.0" font-size="144.33756729740642px" fill="rgb(0,0,0)" stroke="rgb(0,0,0)" stroke-linecap="butt" stroke-miterlimit="10.0" stroke-opacity="1.0" stroke-width="5.583629154612598"><text transform="matrix(1.0000,0.0000,0.0000,1.0000,0.0000,533.4936)" stroke="none" dominant-baseline="middle" text-anchor="middle">F</text></g><g stroke-linejoin="miter" fill-opacity="1.0" fill="rgb(255,255,255)" stroke="rgb(0,0,0)" stroke-linecap="butt" stroke-miterlimit="10.0" stroke-opacity="1.0" stroke-width="5.583629154612598"><path d="M 608.2532,533.4936 c 0.0000,-59.7866 -48.4666,-108.2532 -108.2532 -108.2532c -59.7866,-0.0000 -108.2532,48.4666 -108.2532 108.2532c -0.0000,59.7866 48.4666,108.2532 108.2532 108.2532c 59.7866,0.0000 108.2532,-48.4666 108.2532 -108.2532Z"/></g><g stroke-linejoin="miter" fill-opacity="1.0" font-size="144.33756729740642px" fill="rgb(0,0,0)" stroke="rgb(0,0,0)" stroke-linecap="butt" stroke-miterlimit="10.0" stroke-opacity="1.0" stroke-width="5.583629154612598"><text transform="matrix(1.0000,0.0000,0.0000,1.0000,500.0000,533.4936)" stroke="none" dominant-baseline="middle" text-anchor="middle">C</text></g><g stroke-linejoin="miter" fill-opacity="1.0" fill="rgb(255,255,255)" stroke="rgb(0,0,0)" stroke-linecap="butt" stroke-miterlimit="10.0" stroke-opacity="1.0" stroke-width="5.583629154612598"><path d="M 358.2532,100.4809 c 0.0000,-59.7866 -48.4666,-108.2532 -108.2532 -108.2532c -59.7866,-0.0000 -108.2532,48.4666 -108.2532 108.2532c -0.0000,59.7866 48.4666,108.2532 108.2532 108.2532c 59.7866,0.0000 108.2532,-48.4666 108.2532 -108.2532Z"/></g><g stroke-linejoin="miter" fill-opacity="1.0" font-size="144.33756729740642px" fill="rgb(0,0,0)" stroke="rgb(0,0,0)" stroke-linecap="butt" stroke-miterlimit="10.0" stroke-opacity="1.0" stroke-width="5.583629154612598"><text transform="matrix(1.0000,0.0000,0.0000,1.0000,250.0000,100.4809)" stroke="none" dominant-baseline="middle" text-anchor="middle">Gs</text></g></svg>