<?xml version="1.0" encoding="UTF-8"?>
<!DOCTYPE svg PUBLIC "-//W3C//DTD SVG 1.1//EN"
    "http://www.w3.org/Graphics/SVG/1.1/DTD/svg11.dtd"><svg font-size="1" viewBox="0.0 0.0 1500.0 1500.0" stroke="rgb(0,0,0)" xmlns="http://www.w3.org/2000/svg" width="1500.0000" stroke-opacity="1" height="1500.0000" version="1.1" xmlns:xlink="http://www.w3.org/1999/xlink"><defs></defs><g stroke-linejoin="miter" fill-opacity="1.0" fill="rgb(0,0,255)" stroke="rgb(0,0,0)" stroke-linecap="butt" stroke-miterlimit="10.0" stroke-opacity="1.0" stroke-width="5.26429605180997"><path d="M 1038.6751,1000.0000 l -288.6751,500.0000 h 577.3503 Z"/></g><g stroke-linejoin="miter" fill-opacity="1.0" fill="rgb(255,255,255)" stroke="rgb(0,0,0)" stroke-linecap="butt" stroke-miterlimit="10.0" stroke-opacity="1.0" stroke-width="5.26429605180997"><path d="M 875.0000,1500.0000 c 0.0000,-69.0356 -55.9644,-125.0000 -125.0000 -125.0000c -69.0356,-0.0000 -125.0000,55.9644 -125.0000 125.0000c -0.0000,69.0356 55.9644,125.0000 125.0000 125.0000c 69.0356,0.0000 125.0000,-55.9644 125.0000 -125.0000Z"/></g><g stroke-linejoin="miter" fill-opacity="1.0" font-size="166.66666666666669px" fill="rgb(0,0,0)" stroke="rgb(0,0,0)" stroke-linecap="butt" stroke-miterlimit="10.0" stroke-opacity="1.0" stroke-width="5.26429605180997"><text transform="matrix(1.0000,0.0000,0.0000,1.0000,750.0000,1500.0000)" stroke="none" dominant-baseline="middle" text-anchor="middle">Cs</text></g><g stroke-linejoin="miter" fill-opacity="1.0" fill="rgb(255,255,255)" stroke="rgb(0,0,0)" stroke-linecap="butt" stroke-miterlimit="10.0" stroke-opacity="1.0" stroke-width="5.26429605180997"><path d="M 1452.3503,1500.0000 c 0.0000,-69.0356 -55.9644,-125.0000 -125.0000 -125.0000c -69.0356,-0.0000 -125.0000,55.9644 -125.0000 125.0000c -0.0000,69.0356 55.9644,125.0000 125.0000 125.0000c 69.0356,0.0000 125.0000,-55.9644 125.0000 -125.0000Z"/></g><g stroke-linejoin="miter" fill-opacity="1.0" font-size="166.66666666666669px" fill="rgb(0,0,0)" stroke="rgb(0,0,0)" stroke-linecap="butt" stroke-miterlimit="10.0" stroke-opacity="1.0" stroke-width="5.26429605180997"><text transform="matrix(1.0000,0.0000,0.0000,1.0000,1327.3503,1500.0000)" stroke="none" dominant-baseline="middle" text-anchor="middle">Gs</text></g><g stroke-linejoin="miter" fill-opacity="1.0" fill="rgb(255,255,255)" stroke="rgb(0,0,0)" stroke-linecap="butt" stroke-miterlimit="10.0" stroke-opacity="1.0" stroke-width="5.26429605180997"><path d="M 1163.6751,1000.0000 c 0.0000,-69.0356 -55.9644,-125.0000 -125.0000 -125.0000c -69.0356,-0.0000 -125.0000,55.9644 -125.0000 125.0000c -0.0000,69.0356 55.9644,125.0000 125.0000 125.0000c 69.0356,0.0000 125.0000,-55.9644 125.0000 -125.0000Z"/></g><g stroke-linejoin="miter" fill-opacity="1.0" font-size="166.66666666666669px" fill="rgb(0,0,0)" stroke="rgb(0,0,0)" stroke-linecap="butt" stroke-miterlimit="10.0" stroke-opacity="1.0" stroke-width="5.26429605180997"><text transform="matrix(1.0000,0.0000,0.0000,1.0000,1038.6751,1000.0000)" stroke="none" dominant-baseline="middle" text-anchor="middle">E</text></g><g stroke-linejoin="miter" fill-opacity="1.0" fill="rgb(255,0,0)" stroke="rgb(0,0,0)" stroke-linecap="butt" stroke-miterlimit="10.0" stroke-opacity="1.0" stroke-width="5.26429605180997"><path d="M 1038.6751,1000.0000 l -288.6751,-500.0000 h 577.3503 Z"/></g><g stroke-linejoin="miter" fill-opacity="1.0" fill="rgb(255,255,255)" stroke="rgb(0,0,0)" stroke-linecap="butt" stroke-miterlimit="10.0" stroke-opacity="1.0" stroke-width="5.26429605180997"><path d="M 875.0000,500.0000 c 0.0000,-69.0356 -55.9644,-125.0000 -125.0000 -125.0000c -69.0356,-0.0000 -125.0000,55.9644 -125.0000 125.0000c -0.0000,69.0356 55.9644,125.0000 125.0000 125.0000c 69.0356,0.0000 125.0000,-55.9644 125.0000 -125.0000Z"/></g><g stroke-linejoin="miter" fill-opacity="1.0" font-size="166.66666666666669px" fill="rgb(0,0,0)" stroke="rgb(0,0,0)" stroke-linecap="butt" stroke-miterlimit="10.0" stroke-opacity="1.0" stroke-width="5.26429605180997"><text transform="matrix(1.0000,0.0000,0.0000,1.0000,750.0000,500.0000)" stroke="none" dominant-baseline="middle" text-anchor="middle">C</text></g><g stroke-linejoin="miter" fill-opacity="1.0" fill="rgb(255,255,255)" stroke="rgb(0,0,0)" stroke-linecap="butt" stroke-miterlimit="10.0" stroke-opacity="1.0" stroke-width="5.26429605180997"><path d="M 1452.3503,500.0000 c 0.0000,-69.0356 -55.9644,-125.0000 -125.0000 -125.0000c -69.0356,-0.0000 -125.0000,55.9644 -125.0000 125.0000c -0.0000,69.0356 55.9644,125.0000 125.0000 125.0000c 69.0356,0.0000 125.0000,-55.9644 125.0000 -125.0000Z"/></g><g stroke-linejoin="miter" fill-opacity="1.0" font-size="166.66666666666669px" fill="rgb(0,0,0)" stroke="rgb(0,0,0)" stroke-linecap="butt" stroke-miterlimit="10.0" stroke-opacity="1.0" stroke-width="5.26429605180997"><text transform="matrix(1.0000,0.0000,0.0000,1.0000,1327.3503,500.0000)" stroke="none" dominant-baseline="middle" text-anchor="middle">G</text></g><g stroke-linejoin="miter" fill-opacity="1.0" fill="rgb(255,255,255)" stroke="rgb(0,0,0)" stroke-linecap="butt" stroke-miterlimit="10.0" stroke-opacity="1.0" stroke-width="5.26429605180997"><path d="M 1163.6751,1000.0000 c 0.0000,-69.0356 -55.9644,-125.0000 -125.0000 -125.0000c -69.0356,-0.0000 -125.0000,55.9644 -125.0000 125.0000c -0.0000,69.0356 55.9644,125.0000 125.0000 125.0000c 69.0356,0.0000 125.0000,-55.9644 125.0000 -125.0000Z"/></g><g stroke-linejoin="miter" fill-opacity="1.0" font-size="166.66666666666669px" fill="rgb(0,0,0)" stroke="rgb(0,0,0)" stroke-linecap="butt" stroke-miterlimit="10.0" stroke-opacity="1.0" stroke-width="5.26429605180997"><text transform="matrix(1.0000,0.0000,0.0000,1.0000,1038.6751,1000.0000)" stroke="none" dominant-baseline="middle" text-anchor="middle">E</text></g><g stroke-linejoin="miter" fill-opacity="1.0" fill="rgb(0,0,255)" stroke="rgb(0,0,0)" stroke-linecap="butt" stroke-miterlimit="10.0" stroke-opacity="1.0" stroke-width="5.26429605180997"><path d="M 1038.6751,0.0000 l -288.6751,500.0000 h 577.3503 Z"/></g><g stroke-linejoin="miter" fill-opacity="1.0" fill="rgb(255,255,255)" stroke="rgb(0,0,0)" stroke-linecap="butt" stroke-miterlimit="10.0" stroke-opacity="1.0" stroke-width="5.26429605180997"><path d="M 875.0000,500.0000 c 0.0000,-69.0356 -55.9644,-125.0000 -125.0000 -125.0000c -69.0356,-0.0000 -125.0000,55.9644 -125.0000 125.0000c -0.0000,69.0356 55.9644,125.0000 125.0000 125.0000c 69.0356,0.0000 125.0000,-55.9644 125.0000 -125.0000Z"/></g><g stroke-linejoin="miter" fill-opacity="1.0" font-size="166.66666666666669px" fill="rgb(0,0,0)" stroke="rgb(0,0,0)" stroke-linecap="butt" stroke-miterlimit="10.0" stroke-opacity="1.0" stroke-width="5.26429605180997"><text transform="matrix(1.0000,0.0000,0.0000,1.0000,750.0000,500.0000)" stroke="none" dominant-baseline="middle" text-anchor="middle">C</text></g><g stroke-linejoin="miter" fill-opacity="1.0" fill="rgb(255,255,255)" stroke="rgb(0,0,0)" stroke-linecap="butt" stroke-miterlimit="10.0" stroke-opacity="1.0" stroke-width="5.26429605180997"><path d="M 1452.3503,500.0000 c 0.0000,-69.0356 -55.9644,-125.0000 -125.0000 -125.0000c -69.0356,-0.0000 -125.0000,55.9644 -125.0000 125.0000c -0.0000,69.0356 55.9644,125.0000 125.0000 125.0000c 69.0356,0.0000 125.0000,-55.9644 125.0000 -125.0000Z"/></g><g stroke-linejoin="miter" fill-opacity="1.0" font-size="166.66666666666669px" fill="rgb(0,0,0)" stroke="rgb(0,0,0)" stroke-linecap="butt" stroke-miterlimit="10.0" stroke-opacity="1.0" stroke-width="5.26429605180997"><text transform="matrix(1.0000,0.0000,0.0000,1.0000,1327.3503,500.0000)" stroke="none" dominant-baseline="middle" text-anchor="middle">G</text></g><g stroke-linejoin="miter" fill-opacity="1.0" fill="rgb(255,255,255)" stroke="rgb(0,0,0)" stroke-linecap="butt" stroke-miterlimit="10.0" stroke-opacity="1.0" stroke-width="5.26429605180997"><path d="M 1163.6751,0.0000 c 0.0000,-69.0356 -55.9644,-125.0000 -125.0000 -125.0000c -69.0356,-0.0000 -125.0000,55.9644 -125.0000 125.0000c -0.0000,69.0356 55.9644,125.0000 125.0000 125.0000c 69.0356,0.0000 125.0000,-55.9644 125.0000 -125.0000Z"/></g><g stroke-linejoin="miter" fill-opacity="1.0" font-size="166.66666666666669px" fill="rgb(0,0,0)" stroke="rgb(0,0,0)" stroke-linecap="butt" stroke-miterlimit="10.0" stroke-opacity="1.0" stroke-width="5.26429605180997"><text transform="matrix(1.0000,0.0000,0.0000,1.0000,1038.6751,0.0000)" stroke="none" dominant-baseline="middle" text-anchor="middle">Ds</text></g><g stroke-linejoin="miter" fill-opacity="1.0" fill="rgb(255,0,0)" stroke="rgb(0,0,0)" stroke-linecap="butt" stroke-miterlimit="10.0" stroke-opacity="1.0" stroke-width="5.26429605180997"><path d="M 461.3249,1500.0000 l -288.6751,-500.0000 h 577.3503 Z"/></g><g stroke-linejoin="miter" fill-opacity="1.0" fill="rgb(255,255,255)" stroke="rgb(0,0,0)" stroke-linecap="butt" stroke-miterlimit="10.0" stroke-opacity="1.0" stroke-width="5.26429605180997"><path d="M 297.6497,1000.0000 c 0.0000,-69.0356 -55.9644,-125.0000 -125.0000 -125.0000c -69.0356,-0.0000 -125.0000,55.9644 -125.0000 125.0000c -0.0000,69.0356 55.9644,125.0000 125.0000 125.0000c 69.0356,0.0000 125.0000,-55.9644 125.0000 -125.0000Z"/></g><g stroke-linejoin="miter" fill-opacity="1.0" font-size="166.66666666666669px" fill="rgb(0,0,0)" stroke="rgb(0,0,0)" stroke-linecap="butt" stroke-miterlimit="10.0" stroke-opacity="1.0" stroke-width="5.26429605180997"><text transform="matrix(1.0000,0.0000,0.0000,1.0000,172.6497,1000.0000)" stroke="none" dominant-baseline="middle" text-anchor="middle">A</text></g><g stroke-linejoin="miter" fill-opacity="1.0" fill="rgb(255,255,255)" stroke="rgb(0,0,0)" stroke-linecap="butt" stroke-miterlimit="10.0" stroke-opacity="1.0" stroke-width="5.26429605180997"><path d="M 875.0000,1000.0000 c 0.0000,-69.0356 -55.9644,-125.0000 -125.0000 -125.0000c -69.0356,-0.0000 -125.0000,55.9644 -125.0000 125.0000c -0.0000,69.0356 55.9644,125.0000 125.0000 125.0000c 69.0356,0.0000 125.0000,-55.9644 125.0000 -125.0000Z"/></g><g stroke-linejoin="miter" fill-opacity="1.0" font-size="166.66666666666669px" fill="rgb(0,0,0)" stroke="rgb(0,0,0)" stroke-linecap="butt" stroke-miterlimit="10.0" stroke-opacity="1.0" stroke-width="5.26429605180997"><text transform="matrix(1.0000,0.0000,0.0000,1.0000,750.0000,1000.0000)" stroke="none" dominant-baseline="middle" text-anchor="middle">E</text></g><g stroke-linejoin="miter" fill-opacity="1.0" fill="rgb(255,255,255)" stroke="rgb(0,0,0)" stroke-linecap="butt" stroke-miterlimit="10.0" stroke-opacity="1.0" stroke-width="5.26429605180997"><path d="M 586.3249,1500.0000 c 0.0000,-69.0356 -55.9644,-125.0000 -125.0000 -125.0000c -69.0356,-0.0000 -125.0000,55.9644 -125.0000 125.0000c -0.0000,69.0356 55.9644,125.0000 125.0000 125.0000c 69.0356,0.0000 125.0000,-55.9644 125.0000 -125.0000Z"/></g><g stroke-linejoin="miter" fill-opacity="1.0" font-size="166.66666666666669px" fill="rgb(0,0,0)" stroke="rgb(0,0,0)" stroke-linecap="butt" stroke-miterlimit="10.0" stroke-opacity="1.0" stroke-width="5.26429605180997"><text transform="matrix(1.0000,0.0000,0.0000,1.0000,461.3249,1500.0000)" stroke="none" dominant-baseline="middle" text-anchor="middle">Cs</text></g><g stroke-linejoin="miter" fill-opacity="1.0" fill="rgb(0,0,255)" stroke="rgb(0,0,0)" stroke-linecap="butt" stroke-miterlimit="10.0" stroke-opacity="1.0" stroke-width="5.26429605180997"><path d="M 461.3249,500.0000 l -288.6751,500.0000 h 577.3503 Z"/></g><g stroke-linejoin="miter" fill-opacity="1.0" fill="rgb(255,255,255)" stroke="rgb(0,0,0)" stroke-linecap="butt" stroke-miterlimit="10.0" stroke-opacity="1.0" stroke-width="5.26429605180997"><path d="M 297.6497,1000.0000 c 0.0000,-69.0356 -55.9644,-125.0000 -125.0000 -125.0000c -69.0356,-0.0000 -125.0000,55.9644 -125.0000 125.0000c -0.0000,69.0356 55.9644,125.0000 125.0000 125.0000c 69.0356,0.0000 125.0000,-55.9644 125.0000 -125.0000Z"/></g><g stroke-linejoin="miter" fill-opacity="1.0" font-size="166.66666666666669px" fill="rgb(0,0,0)" stroke="rgb(0,0,0)" stroke-linecap="butt" stroke-miterlimit="10.0" stroke-opacity="1.0" stroke-width="5.26429605180997"><text transform="matrix(1.0000,0.0000,0.0000,1.0000,172.6497,1000.0000)" stroke="none" dominant-baseline="middle" text-anchor="middle">A</text></g><g stroke-linejoin="miter" fill-opacity="1.0" fill="rgb(255,255,255)" stroke="rgb(0,0,0)" stroke-linecap="butt" stroke-miterlimit="10.0" stroke-opacity="1.0" stroke-width="5.26429605180997"><path d="M 875.0000,1000.0000 c 0.0000,-69.0356 -55.9644,-125.0000 -125.0000 -125.0000c -69.0356,-0.0000 -125.0000,55.9644 -125.0000 125.0000c -0.0000,69.0356 55.9644,125.0000 125.0000 125.0000c 69.0356,0.0000 125.0000,-55.9644 125.0000 -125.0000Z"/></g><g stroke-linejoin="miter" fill-opacity="1.0" font-size="166.66666666666669px" fill="rgb(0,0,0)" stroke="rgb(0,0,0)" stroke-linecap="butt" stroke-miterlimit="10.0" stroke-opacity="1.0" stroke-width="5.26429605180997"><text transform="matrix(1.0000,0.0000,0.0000,1.0000,750.0000,1000.0000)" stroke="none" dominant-baseline="middle" text-anchor="middle">E</text></g><g stroke-linejoin="miter" fill-opacity="1.0" fill="rgb(255,255,255)" stroke="rgb(0,0,0)" stroke-linecap="butt" stroke-miterlimit="10.0" stroke-opacity="1.0" stroke-width="5.26429605180997"><path d="M 586.3249,500.0000 c 0.0000,-69.0356 -55.9644,-125.0000 -125.0000 -125.0000c -69.0356,-0.0000 -125.0000,55.9644 -125.0000 125.0000c -0.0000,69.0356 55.9644,125.0000 125.0000 125.0000c 69.0356,0.0000 125.0000,-55.9644 125.0000 -125.0000Z"/></g><g stroke-linejoin="miter" fill-opacity="1.0" font-size="166.66666666666669px" fill="rgb(0,0,0)" stroke="rgb(0,0,0)" stroke-linecap="butt" stroke-miterlimit="10.0" stroke-opacity="1.0" stroke-width="5.26429605180997"><text transform="matrix(1.0000,0.0000,0.0000,1.0000,461.3249,500.0000)" stroke="none" dominant-baseline="middle" text-anchor="middle">C</text></g><g stroke-linejoin="miter" fill-opacity="1.0" fill="rgb(255,0,0)" stroke="rgb(0,0,0)" stroke-linecap="butt" stroke-miterlimit="10.0" stroke-opacity="1.0" stroke-width="5.26429605180997"><path d="M 461.3249,500.0000 l -288.6751,-500.0000 h 577.3503 Z"/></g><g stroke-linejoin="miter" fill-opacity="1.0" fill="rgb(255,255,255)" stroke="rgb(0,0,0)" stroke-linecap="butt" stroke-miterlimit="10.0" stroke-opacity="1.0" stroke-width="5.26429605180997"><path d="M 297.6497,0.0000 c 0.0000,-69.0356 -55.9644,-125.0000 -125.0000 -125.0000c -69.0356,-0.0000 -125.0000,55.9644 -125.0000 125.0000c -0.0000,69.0356 55.9644,125.0000 125.0000 125.0000c 69.0356,0.0000 125.0000,-55.9644 125.0000 -125.0000Z"/></g><g stroke-linejoin="miter" fill-opacity="1.0" font-size="166.66666666666669px" fill="rgb(0,0,0)" stroke="rgb(0,0,0)" stroke-linecap="butt" stroke-miterlimit="10.0" stroke-opacity="1.0" stroke-width="5.26429605180997"><text transform="matrix(1.0000,0.0000,0.0000,1.0000,172.6497,0.0000)" stroke="none" dominant-baseline="middle" text-anchor="middle">Gs</text></g><g stroke-linejoin="miter" fill-opacity="1.0" fill="rgb(255,255,255)" stroke="rgb(0,0,0)" stroke-linecap="butt" stroke-miterlimit="10.0" stroke-opacity="1.0" stroke-width="5.26429605180997"><path d="M 875.0000,0.0000 c 0.0000,-69.0356 -55.9644,-125.0000 -125.0000 -125.0000c -69.0356,-0.0000 -125.0000,55.9644 -125.0000 125.0000c -0.0000,69.0356 55.9644,125.0000 125.0000 125.0000c 69.0356,0.0000 125.0000,-55.9644 125.0000 -125.0000Z"/></g><g stroke-linejoin="miter" fill-opacity="1.0" font-size="166.66666666666669px" fill="rgb(0,0,0)" stroke="rgb(0,0,0)" stroke-linecap="butt" stroke-miterlimit="10.0" stroke-opacity="1.0" stroke-width="5.26429605180997"><text transform="matrix(1.0000,0.0000,0.0000,1.0000,750.0000,0.0000)" stroke="none" dominant-baseline="middle" text-anchor="middle">Ds</text></g><g stroke-linejoin="miter" fill-opacity="1.0" fill="rgb(255,255,255)" stroke="rgb(0,0,0)" stroke-linecap="butt" stroke-miterlimit="10.0" stroke-opacity="1.0" stroke-width="5.26429605180997"><path d="M 586.3249,500.0000 c 0.0000,-69.0356 -55.9644,-125.0000 -125.0000 -125.0000c -69.0356,-0.0000 -125.0000,55.9644 -125.0000 125.0000c -0.0000,69.0356 55.9644,125.0000 125.0000 125.0000c 69.0356,0.0000 125.0000,-55.9644 125.0000 -125.0000Z"/></g><g stroke-linejoin="miter" fill-opacity="1.0" font-size="166.66666666666669px" fill="rgb(0,0,0)" stroke="rgb(0,0,0)" stroke-linecap="butt" stroke-miterlimit="10.0" stroke-opacity="1.0" stroke-width="5.26429605180997"><text transform="matrix(1.0000,0.0000,0.0000,1.0000,461.3249,500.0000)" stroke="none" dominant-baseline="middle" text-anchor="middle">C</text></g></svg>